<?xml version="1.0" encoding="UTF-8" standalone="no"?>
<svg
   xmlns:dc="http://purl.org/dc/elements/1.1/"
   xmlns:cc="http://creativecommons.org/ns#"
   xmlns:rdf="http://www.w3.org/1999/02/22-rdf-syntax-ns#"
   xmlns:svg="http://www.w3.org/2000/svg"
   xmlns="http://www.w3.org/2000/svg"
   xmlns:sodipodi="http://sodipodi.sourceforge.net/DTD/sodipodi-0.dtd"
   xmlns:inkscape="http://www.inkscape.org/namespaces/inkscape"
   width="991.33331"
   height="352.33334"
   overflow="hidden"
   version="1.1"
   id="svg131"
   sodipodi:docname="qt_motor.svg"
   inkscape:version="1.0.2-2 (e86c870879, 2021-01-15)">
  <metadata
     id="metadata135">
    <rdf:RDF>
      <cc:Work
         rdf:about="">
        <dc:format>image/svg+xml</dc:format>
        <dc:type
           rdf:resource="http://purl.org/dc/dcmitype/StillImage" />
        <dc:title></dc:title>
      </cc:Work>
    </rdf:RDF>
  </metadata>
  <sodipodi:namedview
     pagecolor="#ffffff"
     bordercolor="#666666"
     borderopacity="1"
     objecttolerance="10"
     gridtolerance="10"
     guidetolerance="10"
     inkscape:pageopacity="0"
     inkscape:pageshadow="2"
     inkscape:window-width="2880"
     inkscape:window-height="1526"
     id="namedview133"
     showgrid="false"
     fit-margin-top="0"
     fit-margin-left="0"
     fit-margin-right="0"
     fit-margin-bottom="0"
     inkscape:zoom="1.1953125"
     inkscape:cx="426.80719"
     inkscape:cy="222.16667"
     inkscape:window-x="-11"
     inkscape:window-y="382"
     inkscape:window-maximized="1"
     inkscape:current-layer="svg131" />
  <defs
     id="defs5">
    <clipPath
       id="clip0">
      <rect
         x="0"
         y="0"
         width="1280"
         height="720"
         id="rect2" />
    </clipPath>
  </defs>
  <g
     id="g1081"
     transform="translate(-99.833335,-137.83333)">
    <path
       d="m 579.5,314.566 c 0,-1.693 1.373,-3.066 3.066,-3.066 h 155.868 c 1.693,0 3.066,1.373 3.066,3.066 v 38.868 c 0,1.693 -1.373,3.066 -3.066,3.066 H 582.566 c -1.693,0 -3.066,-1.373 -3.066,-3.066 z"
       stroke="#000000"
       stroke-width="1.33333"
       stroke-miterlimit="8"
       fill="#ffffff"
       fill-rule="evenodd"
       id="path9" />
    <text
       font-family="Calibri, Calibri_MSFontService, sans-serif"
       font-weight="400"
       font-size="16px"
       id="text11"
       x="593.17603"
       y="339">QTGestureController</text>
    <path
       d="m 579.5,423.566 c 0,-1.693 1.373,-3.066 3.066,-3.066 h 155.868 c 1.693,0 3.066,1.373 3.066,3.066 v 38.868 c 0,1.693 -1.373,3.066 -3.066,3.066 H 582.566 c -1.693,0 -3.066,-1.373 -3.066,-3.066 z"
       stroke="#000000"
       stroke-width="1.33333"
       stroke-miterlimit="8"
       fill="#ffffff"
       fill-rule="evenodd"
       id="path13" />
    <text
       font-family="Calibri, Calibri_MSFontService, sans-serif"
       font-weight="400"
       font-size="16px"
       id="text15"
       x="594.87903"
       y="448">QTMotorsController</text>
    <path
       d="m 337.5,228.106 c 0,-6.962 5.644,-12.606 12.606,-12.606 h 159.788 c 6.962,0 12.606,5.644 12.606,12.606 v 248.788 c 0,6.962 -5.644,12.606 -12.606,12.606 H 350.106 c -6.962,0 -12.606,-5.644 -12.606,-12.606 z"
       stroke="#000000"
       stroke-width="1.33333"
       stroke-miterlimit="8"
       fill="#ffffff"
       fill-rule="evenodd"
       id="path17" />
    <text
       font-family="Calibri, Calibri_MSFontService, sans-serif"
       font-weight="700"
       font-size="19px"
       id="text19"
       x="389.966"
       y="240">qt_motor</text>
    <path
       d="m 346.5,291.566 c 0,-1.693 1.373,-3.066 3.066,-3.066 h 155.868 c 1.693,0 3.066,1.373 3.066,3.066 v 38.868 c 0,1.693 -1.373,3.066 -3.066,3.066 H 349.566 c -1.693,0 -3.066,-1.373 -3.066,-3.066 z"
       stroke="#000000"
       stroke-width="1.33333"
       stroke-miterlimit="8"
       fill="#ffffff"
       fill-rule="evenodd"
       id="path21" />
    <text
       font-family="Calibri, Calibri_MSFontService, sans-serif"
       font-weight="400"
       font-size="16px"
       id="text25"
       x="377.43701"
       y="306">Joint command <tspan
   font-size="16px"
   x="395.36371"
   y="325"
   id="tspan23">interfaces</tspan></text>
    <path
       d="m 346.5,345.566 c 0,-1.693 1.373,-3.066 3.066,-3.066 h 155.868 c 1.693,0 3.066,1.373 3.066,3.066 v 38.868 c 0,1.693 -1.373,3.066 -3.066,3.066 H 349.566 c -1.693,0 -3.066,-1.373 -3.066,-3.066 z"
       stroke="#000000"
       stroke-width="1.33333"
       stroke-miterlimit="8"
       fill="#ffffff"
       fill-rule="evenodd"
       id="path27" />
    <text
       font-family="Calibri, Calibri_MSFontService, sans-serif"
       font-weight="400"
       font-size="16px"
       id="text29"
       x="360.284"
       y="370">Joint state interfaces</text>
    <path
       d="m 346.5,398.634 c 0,-1.731 1.403,-3.134 3.134,-3.134 h 155.732 c 1.731,0 3.134,1.403 3.134,3.134 v 39.732 c 0,1.731 -1.403,3.134 -3.134,3.134 H 349.634 c -1.731,0 -3.134,-1.403 -3.134,-3.134 z"
       stroke="#000000"
       stroke-width="1.33333"
       stroke-miterlimit="8"
       fill="#ffffff"
       fill-rule="evenodd"
       id="path31" />
    <text
       font-family="Calibri, Calibri_MSFontService, sans-serif"
       font-weight="400"
       font-size="16px"
       id="text35"
       x="388.12701"
       y="414">Motor state <tspan
   font-size="16px"
   x="394.68701"
   y="433"
   id="tspan33">interfaces</tspan></text>
    <rect
       x="100.5"
       y="215.5"
       width="181"
       height="274"
       stroke="#000000"
       stroke-width="1.33333"
       stroke-miterlimit="8"
       stroke-dasharray="5.33333, 4"
       fill="#f2f2f2"
       id="rect37" />
    <text
       font-family="Calibri, Calibri_MSFontService, sans-serif"
       font-weight="700"
       font-size="19px"
       id="text81"
       x="120.16"
       y="245">QTrobot actuators<tspan
   font-family="Wingdings, Wingdings_MSFontService, sans-serif"
   font-weight="400"
   font-size="16px"
   x="109.352"
   y="291"
   id="tspan39"></tspan><tspan
   font-weight="400"
   font-size="16px"
   x="139.35201"
   y="291"
   id="tspan41">PID controller</tspan><tspan
   font-family="Wingdings, Wingdings_MSFontService, sans-serif"
   font-weight="400"
   font-size="16px"
   x="109.352"
   y="310"
   id="tspan43"></tspan><tspan
   font-weight="400"
   font-size="16px"
   x="139.35201"
   y="310"
   id="tspan45">Position</tspan><tspan
   font-weight="400"
   font-size="16px"
   x="195.3653"
   y="310"
   id="tspan47">feedback</tspan><tspan
   font-family="Wingdings, Wingdings_MSFontService, sans-serif"
   font-weight="400"
   font-size="16px"
   x="109.352"
   y="329"
   id="tspan49"></tspan><tspan
   font-weight="400"
   font-size="16px"
   x="139.35201"
   y="329"
   id="tspan51">Velocity</tspan><tspan
   font-weight="400"
   font-size="16px"
   x="194.3853"
   y="329"
   id="tspan53">feedback</tspan><tspan
   font-family="Wingdings, Wingdings_MSFontService, sans-serif"
   font-weight="400"
   font-size="16px"
   x="109.352"
   y="349"
   id="tspan55"></tspan><tspan
   font-weight="400"
   font-size="16px"
   x="139.35201"
   y="349"
   id="tspan57">Effort feedback</tspan><tspan
   font-family="Wingdings, Wingdings_MSFontService, sans-serif"
   font-weight="400"
   font-size="16px"
   x="109.352"
   y="368"
   id="tspan59"></tspan><tspan
   font-weight="400"
   font-size="16px"
   x="139.35201"
   y="368"
   id="tspan61">Temp. feedback</tspan><tspan
   font-family="Wingdings, Wingdings_MSFontService, sans-serif"
   font-weight="400"
   font-size="16px"
   x="109.352"
   y="387"
   id="tspan63"></tspan><tspan
   font-weight="400"
   font-size="16px"
   x="139.35201"
   y="387"
   id="tspan65">Overload protection</tspan><tspan
   font-family="Wingdings, Wingdings_MSFontService, sans-serif"
   font-weight="400"
   font-size="16px"
   x="109.352"
   y="406"
   id="tspan67"></tspan><tspan
   font-weight="400"
   font-size="16px"
   x="139.35201"
   y="406"
   id="tspan69">Position</tspan><tspan
   font-weight="400"
   font-size="16px"
   x="195.3653"
   y="406"
   id="tspan71">limits</tspan><tspan
   font-family="Wingdings, Wingdings_MSFontService, sans-serif"
   font-weight="400"
   font-size="16px"
   x="109.352"
   y="425"
   id="tspan73"></tspan><tspan
   font-weight="400"
   font-size="16px"
   x="139.35201"
   y="425"
   id="tspan75">Calibration data</tspan><tspan
   font-family="Wingdings, Wingdings_MSFontService, sans-serif"
   font-weight="400"
   font-size="16px"
   x="109.352"
   y="445"
   id="tspan77"></tspan><tspan
   font-weight="400"
   font-size="16px"
   x="139.35201"
   y="445"
   id="tspan79">…</tspan></text>
    <rect
       x="799.5"
       y="138.5"
       width="291"
       height="134"
       stroke="#000000"
       stroke-width="1.33333"
       stroke-miterlimit="8"
       stroke-dasharray="5.33333, 4"
       fill="#f2f2f2"
       id="rect83" />
    <text
       fill="#3b3838"
       font-family="Calibri, Calibri_MSFontService, sans-serif"
       font-weight="400"
       font-size="16px"
       id="text95"
       x="808.59003"
       y="162">/qt_robot/head_position/command<tspan
   font-size="16px"
   x="808.59003"
   y="181"
   id="tspan85">/qt_robot/right_arm_position/command</tspan><tspan
   font-size="16px"
   x="808.59003"
   y="200"
   id="tspan87">/qt_robot/left_arm_position/command</tspan><tspan
   font-size="16px"
   x="808.59003"
   y="220"
   id="tspan89">/qt_robot/joints/state</tspan><tspan
   font-size="16px"
   x="808.59003"
   y="239"
   id="tspan91">/qt_robot/motors/states</tspan><tspan
   font-size="16px"
   x="808.59003"
   y="258"
   id="tspan93">..</tspan>.</text>
    <rect
       x="799.5"
       y="287.5"
       width="291"
       height="92"
       stroke="#000000"
       stroke-width="1.33333"
       stroke-miterlimit="8"
       stroke-dasharray="5.33333, 4"
       fill="#f2f2f2"
       id="rect97" />
    <text
       fill="#3b3838"
       font-family="Calibri, Calibri_MSFontService, sans-serif"
       font-weight="400"
       font-size="16px"
       id="text105"
       x="808.59003"
       y="310">/qt_robot/gesture/play<tspan
   font-size="16px"
   x="808.59003"
   y="329"
   id="tspan99">/qt_robot/gesture/record</tspan><tspan
   font-size="16px"
   x="808.59003"
   y="348"
   id="tspan101">/qt_robot/gesture/stop</tspan><tspan
   font-size="16px"
   x="808.59003"
   y="368"
   id="tspan103">…</tspan></text>
    <rect
       x="799.5"
       y="396.5"
       width="291"
       height="93"
       stroke="#000000"
       stroke-width="1.33333"
       stroke-miterlimit="8"
       stroke-dasharray="5.33333, 4"
       fill="#f2f2f2"
       id="rect107" />
    <text
       fill="#3b3838"
       font-family="Calibri, Calibri_MSFontService, sans-serif"
       font-weight="400"
       font-size="16px"
       id="text115"
       x="808.59003"
       y="419">/qt_robot/motors/home<tspan
   font-size="16px"
   x="808.59003"
   y="438"
   id="tspan109">/qt_robot/motors/setControlMode</tspan><tspan
   font-size="16px"
   x="808.59003"
   y="457"
   id="tspan111">/qt_robot/motors/setVelocity</tspan><tspan
   font-size="16px"
   x="808.59003"
   y="477"
   id="tspan113">…</tspan></text>
    <path
       d="m 291,362 h 36.283 v 4 H 291 Z m 2,8 -12,-6 12,-6 z m 32.283,-12 12,6 -12,6 z"
       fill="#595959"
       id="path117" />
    <path
       d="m 523,442 h 56.283"
       stroke="#595959"
       stroke-width="4"
       stroke-linejoin="round"
       stroke-miterlimit="10"
       stroke-dasharray="4, 4"
       fill="none"
       fill-rule="evenodd"
       id="path119" />
    <path
       d="m 522,333 h 56.283"
       stroke="#595959"
       stroke-width="4"
       stroke-linejoin="round"
       stroke-miterlimit="10"
       stroke-dasharray="4, 4"
       fill="none"
       fill-rule="evenodd"
       id="path121" />
    <path
       d="m 753,440 h 36.283 v 4 H 753 Z m 2,8 -12,-6 12,-6 z m 32.283,-12 12,6 -12,6 z"
       fill="#595959"
       id="path123" />
    <path
       d="m 753,331 h 36.283 v 4 H 753 Z m 2,8 -12,-6 12,-6 z m 32.283,-12 12,6 -12,6 z"
       fill="#595959"
       id="path125" />
    <path
       d="m 532,233 h 255.345 v 4 H 532 Z m 2,8 -12,-6 12,-6 z m 251.345,-12 12,6 -12,6 z"
       fill="#595959"
       id="path127" />
  </g>
</svg>
